<mxfile host="drawio-plugin" modified="2023-10-09T13:20:35.199Z" agent="5.0 (Macintosh; Intel Mac OS X 10_15_7) AppleWebKit/537.36 (KHTML, like Gecko) Chrome/111.0.0.0 Safari/537.36" version="20.5.3" etag="DyOIJkXc-LqyqtZ9BZlC" type="embed"><diagram id="K8K8FD2QDviRn2_O0_iI" name="Page-1"><mxGraphModel dx="537" dy="413" grid="1" gridSize="10" guides="1" tooltips="1" connect="1" arrows="1" fold="1" page="1" pageScale="1" pageWidth="850" pageHeight="1100" math="0" shadow="0"><root><mxCell id="0"/><mxCell id="1" parent="0"/><mxCell id="2" value="big img" style="rounded=0;whiteSpace=wrap;html=1;" vertex="1" parent="1"><mxGeometry x="365" y="289" width="120" height="60" as="geometry"/></mxCell><mxCell id="10" value="" style="endArrow=classic;html=1;rounded=0;entryX=0;entryY=0.5;entryDx=0;entryDy=0;" edge="1" parent="1" target="2"><mxGeometry width="50" height="50" relative="1" as="geometry"><mxPoint x="20" y="320" as="sourcePoint"/><mxPoint x="350" y="320" as="targetPoint"/></mxGeometry></mxCell><mxCell id="11" value="" style="group" vertex="1" connectable="0" parent="1"><mxGeometry x="110" y="245" width="190" height="130" as="geometry"/></mxCell><mxCell id="8" value="" style="ellipse;shape=cloud;whiteSpace=wrap;html=1;" vertex="1" parent="11"><mxGeometry width="190" height="130" as="geometry"/></mxCell><mxCell id="3" value="src: originSrc" style="text;html=1;strokeColor=none;fillColor=none;align=center;verticalAlign=middle;whiteSpace=wrap;rounded=0;" vertex="1" parent="11"><mxGeometry x="55" y="70" width="100" height="40" as="geometry"/></mxCell><mxCell id="9" value="loading gif" style="text;html=1;strokeColor=none;fillColor=none;align=center;verticalAlign=middle;whiteSpace=wrap;rounded=0;" vertex="1" parent="11"><mxGeometry x="75" y="30" width="60" height="30" as="geometry"/></mxCell><mxCell id="14" value="Proxy" style="text;html=1;strokeColor=none;fillColor=none;align=center;verticalAlign=middle;whiteSpace=wrap;rounded=0;" vertex="1" parent="1"><mxGeometry x="190" y="215" width="60" height="30" as="geometry"/></mxCell></root></mxGraphModel></diagram></mxfile>